<?xml version="1.0" encoding="utf-8"?>
<!-- Generator: Adobe Illustrator 28.0.0, SVG Export Plug-In . SVG Version: 6.00 Build 0)  -->
<svg version="1.1" id="Capa_2_00000081636774544481670900000011657835153145102751_"
	 xmlns="http://www.w3.org/2000/svg" xmlns:xlink="http://www.w3.org/1999/xlink" x="0px" y="0px" viewBox="0 0 595.3 841.9"
	 style="enable-background:new 0 0 595.3 841.9;" xml:space="preserve">
<style type="text/css">
	.st0{fill:none;stroke:#010202;stroke-width:10;stroke-miterlimit:10;}
	.st1{fill:none;}
</style>
<g>
	<circle class="st0" cx="297.6" cy="420.9" r="205"/>
	<g>
		<rect x="163.3" y="351.2" class="st1" width="170.6" height="152.5"/>
		<path d="M170.8,426.2c0-42.5,35-77.5,77.5-77.5c22.5,0,40,7.5,55,22.5l-12.5,12.5c-12.5-10-25-17.5-42.5-17.5
			c-32.5,0-57.5,27.5-57.5,60s25,60,57.5,60c30,0,55-25,57.5-55h-57.5v-17.5h77.5v12.5c0,42.5-35,77.5-77.5,77.5
			S170.8,468.7,170.8,426.2z"/>
	</g>
	<g>
		<rect x="311.2" y="325.6" class="st1" width="62.7" height="75"/>
		<path d="M316,377.2c0-12,9.6-21.6,22.8-21.6h9.6c6,0,10.8-4.8,10.8-10.8s-4.8-10.8-10.8-10.8h-30v-8.4h30
			c13.2,0,20.4,8.4,20.4,19.2s-7.2,19.2-20.4,19.2h-9.6c-8.4,0-13.2,6-13.2,13.2v12h42v8.4H316V377.2z"/>
	</g>
	<g>
		<rect x="322.4" y="411.8" class="st1" width="84.4" height="98.3"/>
		<path d="M401.1,504.8c0.3,0.3,0.4,0.6,0.2,0.9c-0.1,0.4-0.4,0.5-0.8,0.5h-15.1c-0.3,0-0.5-0.1-0.6-0.3L346,469.5v35.9
			c0,0.6-0.3,0.9-0.9,0.9h-10.3c-0.6,0-0.9-0.3-0.9-0.9v-92.7c0-0.6,0.3-0.9,0.9-0.9h10.3c0.6,0,0.9,0.3,0.9,0.9v35.1l35.7-35.6
			c0.2-0.2,0.4-0.3,0.6-0.3h14.6c0.4,0,0.7,0.2,0.8,0.5c0.2,0.4,0.1,0.7-0.1,0.9L352,458.7L401.1,504.8z"/>
	</g>
</g>
</svg>
